<svg id="visual" viewBox="0 0 960 540" width="960" height="540" xmlns="http://www.w3.org/2000/svg" xmlns:xlink="http://www.w3.org/1999/xlink" version="1.1"><rect x="0" y="0" width="960" height="540" fill="#001220"></rect><defs><linearGradient id="grad1_0" x1="43.8%" y1="0%" x2="100%" y2="100%"><stop offset="14.444444444444446%" stop-color="#3d30ff" stop-opacity="1"></stop><stop offset="85.55555555555554%" stop-color="#3d30ff" stop-opacity="1"></stop></linearGradient></defs><defs><linearGradient id="grad1_1" x1="43.8%" y1="0%" x2="100%" y2="100%"><stop offset="14.444444444444446%" stop-color="#3d30ff" stop-opacity="1"></stop><stop offset="85.55555555555554%" stop-color="#003bce" stop-opacity="1"></stop></linearGradient></defs><defs><linearGradient id="grad1_2" x1="43.8%" y1="0%" x2="100%" y2="100%"><stop offset="14.444444444444446%" stop-color="#003494" stop-opacity="1"></stop><stop offset="85.55555555555554%" stop-color="#003bce" stop-opacity="1"></stop></linearGradient></defs><defs><linearGradient id="grad1_3" x1="43.8%" y1="0%" x2="100%" y2="100%"><stop offset="14.444444444444446%" stop-color="#003494" stop-opacity="1"></stop><stop offset="85.55555555555554%" stop-color="#002558" stop-opacity="1"></stop></linearGradient></defs><defs><linearGradient id="grad1_4" x1="43.8%" y1="0%" x2="100%" y2="100%"><stop offset="14.444444444444446%" stop-color="#001220" stop-opacity="1"></stop><stop offset="85.55555555555554%" stop-color="#002558" stop-opacity="1"></stop></linearGradient></defs><defs><linearGradient id="grad2_0" x1="0%" y1="0%" x2="56.3%" y2="100%"><stop offset="14.444444444444446%" stop-color="#3d30ff" stop-opacity="1"></stop><stop offset="85.55555555555554%" stop-color="#3d30ff" stop-opacity="1"></stop></linearGradient></defs><defs><linearGradient id="grad2_1" x1="0%" y1="0%" x2="56.3%" y2="100%"><stop offset="14.444444444444446%" stop-color="#003bce" stop-opacity="1"></stop><stop offset="85.55555555555554%" stop-color="#3d30ff" stop-opacity="1"></stop></linearGradient></defs><defs><linearGradient id="grad2_2" x1="0%" y1="0%" x2="56.3%" y2="100%"><stop offset="14.444444444444446%" stop-color="#003bce" stop-opacity="1"></stop><stop offset="85.55555555555554%" stop-color="#003494" stop-opacity="1"></stop></linearGradient></defs><defs><linearGradient id="grad2_3" x1="0%" y1="0%" x2="56.3%" y2="100%"><stop offset="14.444444444444446%" stop-color="#002558" stop-opacity="1"></stop><stop offset="85.55555555555554%" stop-color="#003494" stop-opacity="1"></stop></linearGradient></defs><defs><linearGradient id="grad2_4" x1="0%" y1="0%" x2="56.3%" y2="100%"><stop offset="14.444444444444446%" stop-color="#002558" stop-opacity="1"></stop><stop offset="85.55555555555554%" stop-color="#001220" stop-opacity="1"></stop></linearGradient></defs><g transform="translate(960, 0)"><path d="M0 486C-31.1 481.5 -62.2 476.9 -94 472.7C-125.9 468.6 -158.6 464.7 -185.2 447.2C-211.8 429.6 -232.4 398.3 -245.6 367.5C-258.7 336.8 -264.6 306.6 -292.7 292.7C-320.9 278.9 -371.4 281.4 -393.3 262.8C-415.2 244.2 -408.5 204.6 -420.4 174.1C-432.2 143.6 -462.6 122.3 -476.7 94.8C-490.7 67.3 -488.3 33.7 -486 0L0 0Z" fill="#001c3b"></path><path d="M0 388.8C-24.9 385.2 -49.7 381.5 -75.2 378.2C-100.7 374.8 -126.9 371.8 -148.2 357.7C-169.5 343.7 -185.9 318.6 -196.4 294C-207 269.4 -211.7 245.3 -234.2 234.2C-256.7 223.1 -297.1 225.1 -314.6 210.2C-332.1 195.4 -326.8 163.7 -336.3 139.3C-345.8 114.9 -370.1 97.8 -381.3 75.9C-392.6 53.9 -390.7 26.9 -388.8 0L0 0Z" fill="#002d76"></path><path d="M0 291.6C-18.6 288.9 -37.3 286.2 -56.4 283.6C-75.5 281.1 -95.2 278.8 -111.1 268.3C-127.1 257.7 -139.4 239 -147.3 220.5C-155.2 202.1 -158.8 184 -175.6 175.6C-192.5 167.3 -222.8 168.8 -236 157.7C-249.1 146.5 -245.1 122.8 -252.2 104.5C-259.3 86.2 -277.6 73.4 -286 56.9C-294.4 40.4 -293 20.2 -291.6 0L0 0Z" fill="#0039b2"></path><path d="M0 194.4C-12.4 192.6 -24.9 190.8 -37.6 189.1C-50.4 187.4 -63.4 185.9 -74.1 178.9C-84.7 171.8 -92.9 159.3 -98.2 147C-103.5 134.7 -105.8 122.6 -117.1 117.1C-128.4 111.6 -148.6 112.5 -157.3 105.1C-166.1 97.7 -163.4 81.8 -168.1 69.6C-172.9 57.5 -185.1 48.9 -190.7 37.9C-196.3 26.9 -195.3 13.5 -194.4 0L0 0Z" fill="#0039e8"></path><path d="M0 97.2C-6.2 96.3 -12.4 95.4 -18.8 94.5C-25.2 93.7 -31.7 92.9 -37 89.4C-42.4 85.9 -46.5 79.7 -49.1 73.5C-51.7 67.4 -52.9 61.3 -58.5 58.5C-64.2 55.8 -74.3 56.3 -78.7 52.6C-83 48.8 -81.7 40.9 -84.1 34.8C-86.4 28.7 -92.5 24.5 -95.3 19C-98.1 13.5 -97.7 6.7 -97.2 0L0 0Z" fill="#3d30ff"></path></g><g transform="translate(0, 540)"><path d="M0 -486C27.7 -467.3 55.5 -448.5 89.2 -448.2C122.8 -447.9 162.4 -466 185.2 -447.2C208 -428.3 214 -372.5 227.2 -340.1C240.5 -307.6 261.1 -298.4 288.5 -288.5C315.9 -278.6 350.2 -268 371.7 -248.3C393.1 -228.7 401.7 -200.1 419.4 -173.7C437.2 -147.4 464 -123.4 476.7 -94.8C489.3 -66.2 487.6 -33.1 486 0L0 0Z" fill="#001c3b"></path><path d="M0 -388.8C22.2 -373.8 44.4 -358.8 71.3 -358.6C98.3 -358.3 129.9 -372.8 148.2 -357.7C166.4 -342.7 171.2 -298 181.8 -272.1C192.4 -246.1 208.9 -238.7 230.8 -230.8C252.7 -222.9 280.2 -214.4 297.3 -198.7C314.5 -183 321.4 -160.1 335.6 -139C349.7 -117.9 371.2 -98.7 381.3 -75.9C391.4 -53 390.1 -26.5 388.8 0L0 0Z" fill="#002d76"></path><path d="M0 -291.6C16.6 -280.4 33.3 -269.1 53.5 -268.9C73.7 -268.7 97.5 -279.6 111.1 -268.3C124.8 -257 128.4 -223.5 136.3 -204C144.3 -184.6 156.6 -179 173.1 -173.1C189.6 -167.2 210.1 -160.8 223 -149C235.9 -137.2 241 -120 251.7 -104.2C262.3 -88.4 278.4 -74 286 -56.9C293.6 -39.7 292.6 -19.9 291.6 0L0 0Z" fill="#0039b2"></path><path d="M0 -194.4C11.1 -186.9 22.2 -179.4 35.7 -179.3C49.1 -179.2 65 -186.4 74.1 -178.9C83.2 -171.3 85.6 -149 90.9 -136C96.2 -123 104.4 -119.4 115.4 -115.4C126.4 -111.4 140.1 -107.2 148.7 -99.3C157.2 -91.5 160.7 -80 167.8 -69.5C174.9 -59 185.6 -49.4 190.7 -37.9C195.7 -26.5 195.1 -13.2 194.4 0L0 0Z" fill="#0039e8"></path><path d="M0 -97.2C5.5 -93.5 11.1 -89.7 17.8 -89.6C24.6 -89.6 32.5 -93.2 37 -89.4C41.6 -85.7 42.8 -74.5 45.4 -68C48.1 -61.5 52.2 -59.7 57.7 -57.7C63.2 -55.7 70 -53.6 74.3 -49.7C78.6 -45.7 80.3 -40 83.9 -34.7C87.4 -29.5 92.8 -24.7 95.3 -19C97.9 -13.2 97.5 -6.6 97.2 0L0 0Z" fill="#3d30ff"></path></g></svg>