<svg id="visual" viewBox="0 0 900 450" width="900" height="450" xmlns="http://www.w3.org/2000/svg" xmlns:xlink="http://www.w3.org/1999/xlink" version="1.1"><path d="M0 147L21.5 136.3C43 125.7 86 104.3 128.8 103.8C171.7 103.3 214.3 123.7 257.2 122.8C300 122 343 100 385.8 102.2C428.7 104.3 471.3 130.7 514.2 148.7C557 166.7 600 176.3 642.8 183.7C685.7 191 728.3 196 771.2 180.2C814 164.3 857 127.7 878.5 109.3L900 91L900 451L878.5 451C857 451 814 451 771.2 451C728.3 451 685.7 451 642.8 451C600 451 557 451 514.2 451C471.3 451 428.7 451 385.8 451C343 451 300 451 257.2 451C214.3 451 171.7 451 128.8 451C86 451 43 451 21.5 451L0 451Z" fill="#baa7ff"></path><path d="M0 227L21.5 228.3C43 229.7 86 232.3 128.8 227.2C171.7 222 214.3 209 257.2 193.5C300 178 343 160 385.8 164C428.7 168 471.3 194 514.2 196.8C557 199.7 600 179.3 642.8 171.5C685.7 163.7 728.3 168.3 771.2 165.5C814 162.7 857 152.3 878.5 147.2L900 142L900 451L878.5 451C857 451 814 451 771.2 451C728.3 451 685.7 451 642.8 451C600 451 557 451 514.2 451C471.3 451 428.7 451 385.8 451C343 451 300 451 257.2 451C214.3 451 171.7 451 128.8 451C86 451 43 451 21.5 451L0 451Z" fill="#a694f2"></path><path d="M0 217L21.5 229.8C43 242.7 86 268.3 128.8 274.5C171.7 280.7 214.3 267.3 257.2 265C300 262.7 343 271.3 385.8 271C428.7 270.7 471.3 261.3 514.2 258C557 254.7 600 257.3 642.8 260.5C685.7 263.7 728.3 267.3 771.2 275.7C814 284 857 297 878.5 303.5L900 310L900 451L878.5 451C857 451 814 451 771.2 451C728.3 451 685.7 451 642.8 451C600 451 557 451 514.2 451C471.3 451 428.7 451 385.8 451C343 451 300 451 257.2 451C214.3 451 171.7 451 128.8 451C86 451 43 451 21.5 451L0 451Z" fill="#9182e5"></path><path d="M0 331L21.5 334.5C43 338 86 345 128.8 350C171.7 355 214.3 358 257.2 344.7C300 331.3 343 301.7 385.8 288.7C428.7 275.7 471.3 279.3 514.2 282.3C557 285.3 600 287.7 642.8 300.8C685.7 314 728.3 338 771.2 346.2C814 354.3 857 346.7 878.5 342.8L900 339L900 451L878.5 451C857 451 814 451 771.2 451C728.3 451 685.7 451 642.8 451C600 451 557 451 514.2 451C471.3 451 428.7 451 385.8 451C343 451 300 451 257.2 451C214.3 451 171.7 451 128.8 451C86 451 43 451 21.5 451L0 451Z" fill="#7c70d8"></path><path d="M0 401L21.5 401C43 401 86 401 128.8 398.8C171.7 396.7 214.3 392.3 257.2 392.3C300 392.3 343 396.7 385.8 399.2C428.7 401.7 471.3 402.3 514.2 398.5C557 394.7 600 386.3 642.8 383.2C685.7 380 728.3 382 771.2 384.5C814 387 857 390 878.5 391.5L900 393L900 451L878.5 451C857 451 814 451 771.2 451C728.3 451 685.7 451 642.8 451C600 451 557 451 514.2 451C471.3 451 428.7 451 385.8 451C343 451 300 451 257.2 451C214.3 451 171.7 451 128.8 451C86 451 43 451 21.5 451L0 451Z" fill="#665fcc"></path></svg>