<svg id="visual" viewBox="0 0 900 450" width="900" height="450" xmlns="http://www.w3.org/2000/svg" xmlns:xlink="http://www.w3.org/1999/xlink" version="1.1"><path d="M0 171L21.5 171.5C43 172 86 173 128.8 176.5C171.7 180 214.3 186 257.2 198.2C300 210.3 343 228.7 385.8 238.7C428.7 248.7 471.3 250.3 514.2 251.3C557 252.3 600 252.7 642.8 258.5C685.7 264.3 728.3 275.7 771.2 273.7C814 271.7 857 256.3 878.5 248.7L900 241L900 451L878.5 451C857 451 814 451 771.2 451C728.3 451 685.7 451 642.8 451C600 451 557 451 514.2 451C471.3 451 428.7 451 385.8 451C343 451 300 451 257.2 451C214.3 451 171.7 451 128.8 451C86 451 43 451 21.5 451L0 451Z" fill="#7e5aff"></path><path d="M0 316L21.5 312.5C43 309 86 302 128.8 299.8C171.7 297.7 214.3 300.3 257.2 301.7C300 303 343 303 385.8 303.7C428.7 304.3 471.3 305.7 514.2 297C557 288.3 600 269.7 642.8 267.2C685.7 264.7 728.3 278.3 771.2 290C814 301.7 857 311.3 878.5 316.2L900 321L900 451L878.5 451C857 451 814 451 771.2 451C728.3 451 685.7 451 642.8 451C600 451 557 451 514.2 451C471.3 451 428.7 451 385.8 451C343 451 300 451 257.2 451C214.3 451 171.7 451 128.8 451C86 451 43 451 21.5 451L0 451Z" fill="#6346ff"></path><path d="M0 324L21.5 336.2C43 348.3 86 372.7 128.8 383.3C171.7 394 214.3 391 257.2 389.5C300 388 343 388 385.8 382.3C428.7 376.7 471.3 365.3 514.2 358.5C557 351.7 600 349.3 642.8 348.2C685.7 347 728.3 347 771.2 347.8C814 348.7 857 350.3 878.5 351.2L900 352L900 451L878.5 451C857 451 814 451 771.2 451C728.3 451 685.7 451 642.8 451C600 451 557 451 514.2 451C471.3 451 428.7 451 385.8 451C343 451 300 451 257.2 451C214.3 451 171.7 451 128.8 451C86 451 43 451 21.5 451L0 451Z" fill="#3d30ff"></path></svg>