<svg id="visual" viewBox="0 0 900 450" width="900" height="450" xmlns="http://www.w3.org/2000/svg" xmlns:xlink="http://www.w3.org/1999/xlink" version="1.1"><path d="M0 277L21.5 276.5C43 276 86 275 128.8 271.5C171.7 268 214.3 262 257.2 249.8C300 237.7 343 219.3 385.8 209.3C428.7 199.3 471.3 197.7 514.2 196.7C557 195.7 600 195.3 642.8 189.5C685.7 183.7 728.3 172.3 771.2 174.3C814 176.3 857 191.7 878.5 199.3L900 207L900 0L878.5 0C857 0 814 0 771.2 0C728.3 0 685.7 0 642.8 0C600 0 557 0 514.2 0C471.3 0 428.7 0 385.8 0C343 0 300 0 257.2 0C214.3 0 171.7 0 128.8 0C86 0 43 0 21.5 0L0 0Z" fill="#7e5aff"></path><path d="M0 132L21.5 135.5C43 139 86 146 128.8 148.2C171.7 150.3 214.3 147.7 257.2 146.3C300 145 343 145 385.8 144.3C428.7 143.7 471.3 142.3 514.2 151C557 159.7 600 178.3 642.8 180.8C685.7 183.3 728.3 169.7 771.2 158C814 146.3 857 136.7 878.5 131.8L900 127L900 0L878.5 0C857 0 814 0 771.2 0C728.3 0 685.7 0 642.8 0C600 0 557 0 514.2 0C471.3 0 428.7 0 385.8 0C343 0 300 0 257.2 0C214.3 0 171.7 0 128.8 0C86 0 43 0 21.5 0L0 0Z" fill="#6346ff"></path><path d="M0 124L21.5 111.8C43 99.7 86 75.3 128.8 64.7C171.7 54 214.3 57 257.2 58.5C300 60 343 60 385.8 65.7C428.7 71.3 471.3 82.7 514.2 89.5C557 96.3 600 98.7 642.8 99.8C685.7 101 728.3 101 771.2 100.2C814 99.3 857 97.7 878.5 96.8L900 96L900 0L878.5 0C857 0 814 0 771.2 0C728.3 0 685.7 0 642.8 0C600 0 557 0 514.2 0C471.3 0 428.7 0 385.8 0C343 0 300 0 257.2 0C214.3 0 171.7 0 128.8 0C86 0 43 0 21.5 0L0 0Z" fill="#3d30ff"></path></svg>