<svg id="visual" viewBox="0 0 900 450" width="900" height="450" xmlns="http://www.w3.org/2000/svg" xmlns:xlink="http://www.w3.org/1999/xlink" version="1.1"><path d="M0 134L21.5 143.5C43 153 86 172 128.8 182.2C171.7 192.3 214.3 193.7 257.2 202.8C300 212 343 229 385.8 214.5C428.7 200 471.3 154 514.2 138.2C557 122.3 600 136.7 642.8 136.5C685.7 136.3 728.3 121.7 771.2 126.7C814 131.7 857 156.3 878.5 168.7L900 181L900 451L878.5 451C857 451 814 451 771.2 451C728.3 451 685.7 451 642.8 451C600 451 557 451 514.2 451C471.3 451 428.7 451 385.8 451C343 451 300 451 257.2 451C214.3 451 171.7 451 128.8 451C86 451 43 451 21.5 451L0 451Z" fill="#baa7ff"></path><path d="M0 296L21.5 299.8C43 303.7 86 311.3 128.8 305.3C171.7 299.3 214.3 279.7 257.2 259.3C300 239 343 218 385.8 211.8C428.7 205.7 471.3 214.3 514.2 218.8C557 223.3 600 223.7 642.8 218.8C685.7 214 728.3 204 771.2 204.7C814 205.3 857 216.7 878.5 222.3L900 228L900 451L878.5 451C857 451 814 451 771.2 451C728.3 451 685.7 451 642.8 451C600 451 557 451 514.2 451C471.3 451 428.7 451 385.8 451C343 451 300 451 257.2 451C214.3 451 171.7 451 128.8 451C86 451 43 451 21.5 451L0 451Z" fill="#9182e5"></path><path d="M0 337L21.5 336.7C43 336.3 86 335.7 128.8 343.5C171.7 351.3 214.3 367.7 257.2 366.5C300 365.3 343 346.7 385.8 344.5C428.7 342.3 471.3 356.7 514.2 356C557 355.3 600 339.7 642.8 333.7C685.7 327.7 728.3 331.3 771.2 342.7C814 354 857 373 878.5 382.5L900 392L900 451L878.5 451C857 451 814 451 771.2 451C728.3 451 685.7 451 642.8 451C600 451 557 451 514.2 451C471.3 451 428.7 451 385.8 451C343 451 300 451 257.2 451C214.3 451 171.7 451 128.8 451C86 451 43 451 21.5 451L0 451Z" fill="#665fcc"></path></svg>