<svg id="visual" viewBox="0 0 900 450" width="900" height="450" xmlns="http://www.w3.org/2000/svg" xmlns:xlink="http://www.w3.org/1999/xlink" version="1.1"><path d="M0 314L21.5 304.5C43 295 86 276 128.8 265.8C171.7 255.7 214.3 254.3 257.2 245.2C300 236 343 219 385.8 233.5C428.7 248 471.3 294 514.2 309.8C557 325.7 600 311.3 642.8 311.5C685.7 311.7 728.3 326.3 771.2 321.3C814 316.3 857 291.7 878.5 279.3L900 267L900 0L878.5 0C857 0 814 0 771.2 0C728.3 0 685.7 0 642.8 0C600 0 557 0 514.2 0C471.3 0 428.7 0 385.8 0C343 0 300 0 257.2 0C214.3 0 171.7 0 128.8 0C86 0 43 0 21.5 0L0 0Z" fill="#baa7ff"></path><path d="M0 152L21.5 148.2C43 144.3 86 136.7 128.8 142.7C171.7 148.7 214.3 168.3 257.2 188.7C300 209 343 230 385.8 236.2C428.7 242.3 471.3 233.7 514.2 229.2C557 224.7 600 224.3 642.8 229.2C685.7 234 728.3 244 771.2 243.3C814 242.7 857 231.3 878.5 225.7L900 220L900 0L878.5 0C857 0 814 0 771.2 0C728.3 0 685.7 0 642.8 0C600 0 557 0 514.2 0C471.3 0 428.7 0 385.8 0C343 0 300 0 257.2 0C214.3 0 171.7 0 128.8 0C86 0 43 0 21.5 0L0 0Z" fill="#9182e5"></path><path d="M0 111L21.5 111.3C43 111.7 86 112.3 128.8 104.5C171.7 96.7 214.3 80.3 257.2 81.5C300 82.7 343 101.3 385.8 103.5C428.7 105.7 471.3 91.3 514.2 92C557 92.7 600 108.3 642.8 114.3C685.7 120.3 728.3 116.7 771.2 105.3C814 94 857 75 878.5 65.5L900 56L900 0L878.5 0C857 0 814 0 771.2 0C728.3 0 685.7 0 642.8 0C600 0 557 0 514.2 0C471.3 0 428.7 0 385.8 0C343 0 300 0 257.2 0C214.3 0 171.7 0 128.8 0C86 0 43 0 21.5 0L0 0Z" fill="#665fcc"></path></svg>