<svg id="visual" viewBox="0 0 900 900" width="900" height="900" xmlns="http://www.w3.org/2000/svg" xmlns:xlink="http://www.w3.org/1999/xlink" version="1.1"><rect x="0" y="0" width="900" height="900" fill="#001220"></rect><path d="M0 688L21.5 644.5C43 601 86 514 128.8 512.5C171.7 511 214.3 595 257.2 621C300 647 343 615 385.8 588.3C428.7 561.7 471.3 540.3 514.2 531.5C557 522.7 600 526.3 642.8 558.5C685.7 590.7 728.3 651.3 771.2 655.3C814 659.3 857 606.7 878.5 580.3L900 554L900 0L878.5 0C857 0 814 0 771.2 0C728.3 0 685.7 0 642.8 0C600 0 557 0 514.2 0C471.3 0 428.7 0 385.8 0C343 0 300 0 257.2 0C214.3 0 171.7 0 128.8 0C86 0 43 0 21.5 0L0 0Z" fill="#7e5aff"></path><path d="M0 432L21.5 436.7C43 441.3 86 450.7 128.8 434.7C171.7 418.7 214.3 377.3 257.2 374.3C300 371.3 343 406.7 385.8 407.2C428.7 407.7 471.3 373.3 514.2 348C557 322.7 600 306.3 642.8 305.7C685.7 305 728.3 320 771.2 343.3C814 366.7 857 398.3 878.5 414.2L900 430L900 0L878.5 0C857 0 814 0 771.2 0C728.3 0 685.7 0 642.8 0C600 0 557 0 514.2 0C471.3 0 428.7 0 385.8 0C343 0 300 0 257.2 0C214.3 0 171.7 0 128.8 0C86 0 43 0 21.5 0L0 0Z" fill="#6346ff"></path><path d="M0 184L21.5 179C43 174 86 164 128.8 177.7C171.7 191.3 214.3 228.7 257.2 225C300 221.3 343 176.7 385.8 187.8C428.7 199 471.3 266 514.2 267.3C557 268.7 600 204.3 642.8 191.3C685.7 178.3 728.3 216.7 771.2 217.7C814 218.7 857 182.3 878.5 164.2L900 146L900 0L878.5 0C857 0 814 0 771.2 0C728.3 0 685.7 0 642.8 0C600 0 557 0 514.2 0C471.3 0 428.7 0 385.8 0C343 0 300 0 257.2 0C214.3 0 171.7 0 128.8 0C86 0 43 0 21.5 0L0 0Z" fill="#3d30ff"></path></svg>