<svg id="visual" viewBox="0 0 675 900" width="675" height="900" xmlns="http://www.w3.org/2000/svg" xmlns:xlink="http://www.w3.org/1999/xlink" version="1.1"><path d="M0 73L10.2 86.5C20.3 100 40.7 127 61.2 140.5C81.7 154 102.3 154 122.8 139C143.3 124 163.7 94 184 89.5C204.3 85 224.7 106 245.2 109C265.7 112 286.3 97 306.8 85C327.3 73 347.7 64 368.2 65.5C388.7 67 409.3 79 429.8 94C450.3 109 470.7 127 491 125.5C511.3 124 531.7 103 552.2 101.5C572.7 100 593.3 118 613.8 122.5C634.3 127 654.7 118 664.8 113.5L675 109L675 0L664.8 0C654.7 0 634.3 0 613.8 0C593.3 0 572.7 0 552.2 0C531.7 0 511.3 0 491 0C470.7 0 450.3 0 429.8 0C409.3 0 388.7 0 368.2 0C347.7 0 327.3 0 306.8 0C286.3 0 265.7 0 245.2 0C224.7 0 204.3 0 184 0C163.7 0 143.3 0 122.8 0C102.3 0 81.7 0 61.2 0C40.7 0 20.3 0 10.2 0L0 0Z" fill="#6198ff"></path><path d="M0 163L10.2 188.5C20.3 214 40.7 265 61.2 280C81.7 295 102.3 274 122.8 257.5C143.3 241 163.7 229 184 229C204.3 229 224.7 241 245.2 244C265.7 247 286.3 241 306.8 224.5C327.3 208 347.7 181 368.2 185.5C388.7 190 409.3 226 429.8 244C450.3 262 470.7 262 491 260.5C511.3 259 531.7 256 552.2 262C572.7 268 593.3 283 613.8 295C634.3 307 654.7 316 664.8 320.5L675 325L675 107L664.8 111.5C654.7 116 634.3 125 613.8 120.5C593.3 116 572.7 98 552.2 99.5C531.7 101 511.3 122 491 123.5C470.7 125 450.3 107 429.8 92C409.3 77 388.7 65 368.2 63.5C347.7 62 327.3 71 306.8 83C286.3 95 265.7 110 245.2 107C224.7 104 204.3 83 184 87.5C163.7 92 143.3 122 122.8 137C102.3 152 81.7 152 61.2 138.5C40.7 125 20.3 98 10.2 84.5L0 71Z" fill="#3c80ff"></path><path d="M0 496L10.2 515.5C20.3 535 40.7 574 61.2 572.5C81.7 571 102.3 529 122.8 512.5C143.3 496 163.7 505 184 494.5C204.3 484 224.7 454 245.2 439C265.7 424 286.3 424 306.8 448C327.3 472 347.7 520 368.2 518.5C388.7 517 409.3 466 429.8 467.5C450.3 469 470.7 523 491 542.5C511.3 562 531.7 547 552.2 554.5C572.7 562 593.3 592 613.8 601C634.3 610 654.7 598 664.8 592L675 586L675 323L664.8 318.5C654.7 314 634.3 305 613.8 293C593.3 281 572.7 266 552.2 260C531.7 254 511.3 257 491 258.5C470.7 260 450.3 260 429.8 242C409.3 224 388.7 188 368.2 183.5C347.7 179 327.3 206 306.8 222.5C286.3 239 265.7 245 245.2 242C224.7 239 204.3 227 184 227C163.7 227 143.3 239 122.8 255.5C102.3 272 81.7 293 61.2 278C40.7 263 20.3 212 10.2 186.5L0 161Z" fill="#0066ff"></path><path d="M0 559L10.2 584.5C20.3 610 40.7 661 61.2 667C81.7 673 102.3 634 122.8 632.5C143.3 631 163.7 667 184 655C204.3 643 224.7 583 245.2 553C265.7 523 286.3 523 306.8 553C327.3 583 347.7 643 368.2 647.5C388.7 652 409.3 601 429.8 607C450.3 613 470.7 676 491 689.5C511.3 703 531.7 667 552.2 659.5C572.7 652 593.3 673 613.8 691C634.3 709 654.7 724 664.8 731.5L675 739L675 584L664.8 590C654.7 596 634.3 608 613.8 599C593.3 590 572.7 560 552.2 552.5C531.7 545 511.3 560 491 540.5C470.7 521 450.3 467 429.8 465.5C409.3 464 388.7 515 368.2 516.5C347.7 518 327.3 470 306.8 446C286.3 422 265.7 422 245.2 437C224.7 452 204.3 482 184 492.5C163.7 503 143.3 494 122.8 510.5C102.3 527 81.7 569 61.2 570.5C40.7 572 20.3 533 10.2 513.5L0 494Z" fill="#0059dd"></path><path d="M0 901L10.2 901C20.3 901 40.7 901 61.2 901C81.7 901 102.3 901 122.8 901C143.3 901 163.7 901 184 901C204.3 901 224.7 901 245.2 901C265.7 901 286.3 901 306.8 901C327.3 901 347.7 901 368.2 901C388.7 901 409.3 901 429.8 901C450.3 901 470.7 901 491 901C511.3 901 531.7 901 552.2 901C572.7 901 593.3 901 613.8 901C634.3 901 654.7 901 664.8 901L675 901L675 737L664.8 729.5C654.7 722 634.3 707 613.8 689C593.3 671 572.7 650 552.2 657.5C531.7 665 511.3 701 491 687.5C470.7 674 450.3 611 429.8 605C409.3 599 388.7 650 368.2 645.5C347.7 641 327.3 581 306.8 551C286.3 521 265.7 521 245.2 551C224.7 581 204.3 641 184 653C163.7 665 143.3 629 122.8 630.5C102.3 632 81.7 671 61.2 665C40.7 659 20.3 608 10.2 582.5L0 557Z" fill="#004cbb"></path></svg>