<svg id="visual" viewBox="0 0 675 900" width="675" height="900" xmlns="http://www.w3.org/2000/svg" xmlns:xlink="http://www.w3.org/1999/xlink" version="1.1"><path d="M0 759L16 746.2C32 733.3 64 707.7 96.2 702.7C128.3 697.7 160.7 713.3 192.8 713C225 712.7 257 696.3 289.2 697.2C321.3 698 353.7 716 385.8 730.8C418 745.7 450 757.3 482.2 757.7C514.3 758 546.7 747 578.8 736.7C611 726.3 643 716.7 659 711.8L675 707L675 901L659 901C643 901 611 901 578.8 901C546.7 901 514.3 901 482.2 901C450 901 418 901 385.8 901C353.7 901 321.3 901 289.2 901C257 901 225 901 192.8 901C160.7 901 128.3 901 96.2 901C64 901 32 901 16 901L0 901Z" fill="#7e5aff"></path><path d="M0 809L16 802.3C32 795.7 64 782.3 96.2 771.3C128.3 760.3 160.7 751.7 192.8 755.8C225 760 257 777 289.2 783.8C321.3 790.7 353.7 787.3 385.8 789.2C418 791 450 798 482.2 800.2C514.3 802.3 546.7 799.7 578.8 802.3C611 805 643 813 659 817L675 821L675 901L659 901C643 901 611 901 578.8 901C546.7 901 514.3 901 482.2 901C450 901 418 901 385.8 901C353.7 901 321.3 901 289.2 901C257 901 225 901 192.8 901C160.7 901 128.3 901 96.2 901C64 901 32 901 16 901L0 901Z" fill="#6346ff"></path><path d="M0 854L16 851.2C32 848.3 64 842.7 96.2 842.2C128.3 841.7 160.7 846.3 192.8 848.2C225 850 257 849 289.2 841.7C321.3 834.3 353.7 820.7 385.8 812.7C418 804.7 450 802.3 482.2 809.5C514.3 816.7 546.7 833.3 578.8 843.7C611 854 643 858 659 860L675 862L675 901L659 901C643 901 611 901 578.8 901C546.7 901 514.3 901 482.2 901C450 901 418 901 385.8 901C353.7 901 321.3 901 289.2 901C257 901 225 901 192.8 901C160.7 901 128.3 901 96.2 901C64 901 32 901 16 901L0 901Z" fill="#3d30ff"></path></svg>