<svg id="visual" viewBox="0 0 900 600" width="900" height="600" xmlns="http://www.w3.org/2000/svg" xmlns:xlink="http://www.w3.org/1999/xlink" version="1.1"><path d="M0 115L13.7 107C27.3 99 54.7 83 82 71C109.3 59 136.7 51 163.8 56C191 61 218 79 245.2 87C272.3 95 299.7 93 327 96C354.3 99 381.7 107 409 101C436.3 95 463.7 75 491 63C518.3 51 545.7 47 573 54C600.3 61 627.7 79 654.8 82C682 85 709 73 736.2 67C763.3 61 790.7 61 818 71C845.3 81 872.7 101 886.3 111L900 121L900 0L886.3 0C872.7 0 845.3 0 818 0C790.7 0 763.3 0 736.2 0C709 0 682 0 654.8 0C627.7 0 600.3 0 573 0C545.7 0 518.3 0 491 0C463.7 0 436.3 0 409 0C381.7 0 354.3 0 327 0C299.7 0 272.3 0 245.2 0C218 0 191 0 163.8 0C136.7 0 109.3 0 82 0C54.7 0 27.3 0 13.7 0L0 0Z" fill="#291ebf"></path><path d="M0 337L13.7 315C27.3 293 54.7 249 82 234C109.3 219 136.7 233 163.8 248C191 263 218 279 245.2 281C272.3 283 299.7 271 327 277C354.3 283 381.7 307 409 311C436.3 315 463.7 299 491 290C518.3 281 545.7 279 573 267C600.3 255 627.7 233 654.8 217C682 201 709 191 736.2 195C763.3 199 790.7 217 818 228C845.3 239 872.7 243 886.3 245L900 247L900 119L886.3 109C872.7 99 845.3 79 818 69C790.7 59 763.3 59 736.2 65C709 71 682 83 654.8 80C627.7 77 600.3 59 573 52C545.7 45 518.3 49 491 61C463.7 73 436.3 93 409 99C381.7 105 354.3 97 327 94C299.7 91 272.3 93 245.2 85C218 77 191 59 163.8 54C136.7 49 109.3 57 82 69C54.7 81 27.3 97 13.7 105L0 113Z" fill="#3327df"></path><path d="M0 379L13.7 361C27.3 343 54.7 307 82 296C109.3 285 136.7 299 163.8 314C191 329 218 345 245.2 351C272.3 357 299.7 353 327 362C354.3 371 381.7 393 409 393C436.3 393 463.7 371 491 363C518.3 355 545.7 361 573 352C600.3 343 627.7 319 654.8 298C682 277 709 259 736.2 259C763.3 259 790.7 277 818 291C845.3 305 872.7 315 886.3 320L900 325L900 245L886.3 243C872.7 241 845.3 237 818 226C790.7 215 763.3 197 736.2 193C709 189 682 199 654.8 215C627.7 231 600.3 253 573 265C545.7 277 518.3 279 491 288C463.7 297 436.3 313 409 309C381.7 305 354.3 281 327 275C299.7 269 272.3 281 245.2 279C218 277 191 261 163.8 246C136.7 231 109.3 217 82 232C54.7 247 27.3 291 13.7 313L0 335Z" fill="#3d30ff"></path><path d="M0 541L13.7 529C27.3 517 54.7 493 82 486C109.3 479 136.7 489 163.8 500C191 511 218 523 245.2 524C272.3 525 299.7 515 327 510C354.3 505 381.7 505 409 511C436.3 517 463.7 529 491 519C518.3 509 545.7 477 573 479C600.3 481 627.7 517 654.8 523C682 529 709 505 736.2 498C763.3 491 790.7 501 818 506C845.3 511 872.7 511 886.3 511L900 511L900 323L886.3 318C872.7 313 845.3 303 818 289C790.7 275 763.3 257 736.2 257C709 257 682 275 654.8 296C627.7 317 600.3 341 573 350C545.7 359 518.3 353 491 361C463.7 369 436.3 391 409 391C381.7 391 354.3 369 327 360C299.7 351 272.3 355 245.2 349C218 343 191 327 163.8 312C136.7 297 109.3 283 82 294C54.7 305 27.3 341 13.7 359L0 377Z" fill="#6555ff"></path><path d="M0 601L13.7 601C27.3 601 54.7 601 82 601C109.3 601 136.7 601 163.8 601C191 601 218 601 245.2 601C272.3 601 299.7 601 327 601C354.3 601 381.7 601 409 601C436.3 601 463.7 601 491 601C518.3 601 545.7 601 573 601C600.3 601 627.7 601 654.8 601C682 601 709 601 736.2 601C763.3 601 790.7 601 818 601C845.3 601 872.7 601 886.3 601L900 601L900 509L886.3 509C872.7 509 845.3 509 818 504C790.7 499 763.3 489 736.2 496C709 503 682 527 654.8 521C627.7 515 600.3 479 573 477C545.7 475 518.3 507 491 517C463.7 527 436.3 515 409 509C381.7 503 354.3 503 327 508C299.7 513 272.3 523 245.2 522C218 521 191 509 163.8 498C136.7 487 109.3 477 82 484C54.7 491 27.3 515 13.7 527L0 539Z" fill="#8375ff"></path></svg>