<svg id="visual" viewBox="0 0 960 540" width="960" height="540" xmlns="http://www.w3.org/2000/svg" xmlns:xlink="http://www.w3.org/1999/xlink" version="1.1"><rect x="0" y="0" width="960" height="540" fill="#001220"></rect><defs><linearGradient id="grad1_0" x1="43.8%" y1="0%" x2="100%" y2="100%"><stop offset="14.444444444444446%" stop-color="#7e5aff" stop-opacity="1"></stop><stop offset="85.55555555555554%" stop-color="#7e5aff" stop-opacity="1"></stop></linearGradient></defs><defs><linearGradient id="grad1_1" x1="43.8%" y1="0%" x2="100%" y2="100%"><stop offset="14.444444444444446%" stop-color="#7e5aff" stop-opacity="1"></stop><stop offset="85.55555555555554%" stop-color="#004db9" stop-opacity="1"></stop></linearGradient></defs><defs><linearGradient id="grad1_2" x1="43.8%" y1="0%" x2="100%" y2="100%"><stop offset="14.444444444444446%" stop-color="#00326a" stop-opacity="1"></stop><stop offset="85.55555555555554%" stop-color="#004db9" stop-opacity="1"></stop></linearGradient></defs><defs><linearGradient id="grad1_3" x1="43.8%" y1="0%" x2="100%" y2="100%"><stop offset="14.444444444444446%" stop-color="#00326a" stop-opacity="1"></stop><stop offset="85.55555555555554%" stop-color="#001220" stop-opacity="1"></stop></linearGradient></defs><defs><linearGradient id="grad2_0" x1="0%" y1="0%" x2="56.3%" y2="100%"><stop offset="14.444444444444446%" stop-color="#7e5aff" stop-opacity="1"></stop><stop offset="85.55555555555554%" stop-color="#7e5aff" stop-opacity="1"></stop></linearGradient></defs><defs><linearGradient id="grad2_1" x1="0%" y1="0%" x2="56.3%" y2="100%"><stop offset="14.444444444444446%" stop-color="#004db9" stop-opacity="1"></stop><stop offset="85.55555555555554%" stop-color="#7e5aff" stop-opacity="1"></stop></linearGradient></defs><defs><linearGradient id="grad2_2" x1="0%" y1="0%" x2="56.3%" y2="100%"><stop offset="14.444444444444446%" stop-color="#004db9" stop-opacity="1"></stop><stop offset="85.55555555555554%" stop-color="#00326a" stop-opacity="1"></stop></linearGradient></defs><defs><linearGradient id="grad2_3" x1="0%" y1="0%" x2="56.3%" y2="100%"><stop offset="14.444444444444446%" stop-color="#001220" stop-opacity="1"></stop><stop offset="85.55555555555554%" stop-color="#00326a" stop-opacity="1"></stop></linearGradient></defs><g transform="translate(960, 0)"><path d="M0 486C-43.2 430 -86.5 374.1 -148.5 358.5C-210.5 342.8 -291.3 367.6 -343.7 343.7C-396 319.7 -419.9 247.2 -438.8 181.8C-457.8 116.4 -471.9 58.2 -486 0L0 0Z" fill="#002344"></path><path d="M0 364.5C-32.4 322.5 -64.8 280.6 -111.4 268.8C-157.9 257.1 -218.5 275.7 -257.7 257.7C-297 239.8 -314.9 185.4 -329.1 136.3C-343.4 87.3 -353.9 43.6 -364.5 0L0 0Z" fill="#004092"></path><path d="M0 243C-21.6 215 -43.2 187 -74.2 179.2C-105.3 171.4 -145.7 183.8 -171.8 171.8C-198 159.9 -209.9 123.6 -219.4 90.9C-228.9 58.2 -236 29.1 -243 0L0 0Z" fill="#4756de"></path><path d="M0 121.5C-10.8 107.5 -21.6 93.5 -37.1 89.6C-52.6 85.7 -72.8 91.9 -85.9 85.9C-99 79.9 -105 61.8 -109.7 45.4C-114.5 29.1 -118 14.5 -121.5 0L0 0Z" fill="#7e5aff"></path></g><g transform="translate(0, 540)"><path d="M0 -486C41.2 -430 82.4 -374 149.2 -360.3C216.1 -346.6 308.6 -375.1 343.7 -343.7C378.7 -312.2 356.3 -220.7 370.5 -153.5C384.6 -86.2 435.3 -43.1 486 0L0 0Z" fill="#002344"></path><path d="M0 -364.5C30.9 -322.5 61.8 -280.5 111.9 -270.2C162.1 -259.9 231.4 -281.3 257.7 -257.7C284 -234.1 267.2 -165.5 277.9 -115.1C288.5 -64.6 326.5 -32.3 364.5 0L0 0Z" fill="#004092"></path><path d="M0 -243C20.6 -215 41.2 -187 74.6 -180.2C108 -173.3 154.3 -187.6 171.8 -171.8C189.4 -156.1 178.2 -110.4 185.2 -76.7C192.3 -43.1 217.7 -21.5 243 0L0 0Z" fill="#4756de"></path><path d="M0 -121.5C10.3 -107.5 20.6 -93.5 37.3 -90.1C54 -86.6 77.1 -93.8 85.9 -85.9C94.7 -78 89.1 -55.2 92.6 -38.4C96.2 -21.5 108.8 -10.8 121.5 0L0 0Z" fill="#7e5aff"></path></g></svg>