<svg id="visual" viewBox="0 0 900 250" width="900" height="250" xmlns="http://www.w3.org/2000/svg" xmlns:xlink="http://www.w3.org/1999/xlink" version="1.1"><path d="M0 131L21.5 134C43 137 86 143 128.8 143.7C171.7 144.3 214.3 139.7 257.2 143.5C300 147.3 343 159.7 385.8 161.2C428.7 162.7 471.3 153.3 514.2 146.7C557 140 600 136 642.8 134.5C685.7 133 728.3 134 771.2 140.3C814 146.7 857 158.3 878.5 164.2L900 170L900 251L878.5 251C857 251 814 251 771.2 251C728.3 251 685.7 251 642.8 251C600 251 557 251 514.2 251C471.3 251 428.7 251 385.8 251C343 251 300 251 257.2 251C214.3 251 171.7 251 128.8 251C86 251 43 251 21.5 251L0 251Z" fill="#7e5aff"></path><path d="M0 184L21.5 180C43 176 86 168 128.8 162.7C171.7 157.3 214.3 154.7 257.2 155.8C300 157 343 162 385.8 167.3C428.7 172.7 471.3 178.3 514.2 176.7C557 175 600 166 642.8 162.7C685.7 159.3 728.3 161.7 771.2 165.2C814 168.7 857 173.3 878.5 175.7L900 178L900 251L878.5 251C857 251 814 251 771.2 251C728.3 251 685.7 251 642.8 251C600 251 557 251 514.2 251C471.3 251 428.7 251 385.8 251C343 251 300 251 257.2 251C214.3 251 171.7 251 128.8 251C86 251 43 251 21.5 251L0 251Z" fill="#7150ff"></path><path d="M0 178L21.5 179.2C43 180.3 86 182.7 128.8 181.3C171.7 180 214.3 175 257.2 174.7C300 174.3 343 178.7 385.8 181C428.7 183.3 471.3 183.7 514.2 186C557 188.3 600 192.7 642.8 195.3C685.7 198 728.3 199 771.2 196.8C814 194.7 857 189.3 878.5 186.7L900 184L900 251L878.5 251C857 251 814 251 771.2 251C728.3 251 685.7 251 642.8 251C600 251 557 251 514.2 251C471.3 251 428.7 251 385.8 251C343 251 300 251 257.2 251C214.3 251 171.7 251 128.8 251C86 251 43 251 21.5 251L0 251Z" fill="#6346ff"></path><path d="M0 192L21.5 192C43 192 86 192 128.8 195.3C171.7 198.7 214.3 205.3 257.2 208.8C300 212.3 343 212.7 385.8 214C428.7 215.3 471.3 217.7 514.2 216.8C557 216 600 212 642.8 210C685.7 208 728.3 208 771.2 208.3C814 208.7 857 209.3 878.5 209.7L900 210L900 251L878.5 251C857 251 814 251 771.2 251C728.3 251 685.7 251 642.8 251C600 251 557 251 514.2 251C471.3 251 428.7 251 385.8 251C343 251 300 251 257.2 251C214.3 251 171.7 251 128.8 251C86 251 43 251 21.5 251L0 251Z" fill="#523bff"></path><path d="M0 234L21.5 231.7C43 229.3 86 224.7 128.8 222.3C171.7 220 214.3 220 257.2 220.3C300 220.7 343 221.3 385.8 223.5C428.7 225.7 471.3 229.3 514.2 229.2C557 229 600 225 642.8 223.2C685.7 221.3 728.3 221.7 771.2 224C814 226.3 857 230.7 878.5 232.8L900 235L900 251L878.5 251C857 251 814 251 771.2 251C728.3 251 685.7 251 642.8 251C600 251 557 251 514.2 251C471.3 251 428.7 251 385.8 251C343 251 300 251 257.2 251C214.3 251 171.7 251 128.8 251C86 251 43 251 21.5 251L0 251Z" fill="#3d30ff"></path></svg>