<svg id="visual" viewBox="0 0 540 960" width="540" height="960" xmlns="http://www.w3.org/2000/svg" xmlns:xlink="http://www.w3.org/1999/xlink" version="1.1"><path d="M0 878L12.8 878.3C25.7 878.7 51.3 879.3 77 881.7C102.7 884 128.3 888 154 887.2C179.7 886.3 205.3 880.7 231.2 880.7C257 880.7 283 886.3 308.8 888.2C334.7 890 360.3 888 386 885.8C411.7 883.7 437.3 881.3 463 879.2C488.7 877 514.3 875 527.2 874L540 873L540 961L527.2 961C514.3 961 488.7 961 463 961C437.3 961 411.7 961 386 961C360.3 961 334.7 961 308.8 961C283 961 257 961 231.2 961C205.3 961 179.7 961 154 961C128.3 961 102.7 961 77 961C51.3 961 25.7 961 12.8 961L0 961Z" fill="#2e24c7"></path><path d="M0 895L12.8 896C25.7 897 51.3 899 77 901.2C102.7 903.3 128.3 905.7 154 904.2C179.7 902.7 205.3 897.3 231.2 895.5C257 893.7 283 895.3 308.8 895.7C334.7 896 360.3 895 386 896.2C411.7 897.3 437.3 900.7 463 900.5C488.7 900.3 514.3 896.7 527.2 894.8L540 893L540 961L527.2 961C514.3 961 488.7 961 463 961C437.3 961 411.7 961 386 961C360.3 961 334.7 961 308.8 961C283 961 257 961 231.2 961C205.3 961 179.7 961 154 961C128.3 961 102.7 961 77 961C51.3 961 25.7 961 12.8 961L0 961Z" fill="#4b35da"></path><path d="M0 917L12.8 915.7C25.7 914.3 51.3 911.7 77 914.3C102.7 917 128.3 925 154 928.5C179.7 932 205.3 931 231.2 927.7C257 924.3 283 918.7 308.8 916.3C334.7 914 360.3 915 386 916.8C411.7 918.7 437.3 921.3 463 924.2C488.7 927 514.3 930 527.2 931.5L540 933L540 961L527.2 961C514.3 961 488.7 961 463 961C437.3 961 411.7 961 386 961C360.3 961 334.7 961 308.8 961C283 961 257 961 231.2 961C205.3 961 179.7 961 154 961C128.3 961 102.7 961 77 961C51.3 961 25.7 961 12.8 961L0 961Z" fill="#6445ec"></path><path d="M0 938L12.8 936.8C25.7 935.7 51.3 933.3 77 934.5C102.7 935.7 128.3 940.3 154 941C179.7 941.7 205.3 938.3 231.2 936C257 933.7 283 932.3 308.8 932.3C334.7 932.3 360.3 933.7 386 934.8C411.7 936 437.3 937 463 939.2C488.7 941.3 514.3 944.7 527.2 946.3L540 948L540 961L527.2 961C514.3 961 488.7 961 463 961C437.3 961 411.7 961 386 961C360.3 961 334.7 961 308.8 961C283 961 257 961 231.2 961C205.3 961 179.7 961 154 961C128.3 961 102.7 961 77 961C51.3 961 25.7 961 12.8 961L0 961Z" fill="#7a56ff"></path></svg>