<svg id="visual" viewBox="0 0 900 250" width="900" height="250" xmlns="http://www.w3.org/2000/svg" xmlns:xlink="http://www.w3.org/1999/xlink" version="1.1"><path d="M0 116L16.7 110.7C33.3 105.3 66.7 94.7 100 90.3C133.3 86 166.7 88 200 87.8C233.3 87.7 266.7 85.3 300 89.5C333.3 93.7 366.7 104.3 400 106.7C433.3 109 466.7 103 500 103.8C533.3 104.7 566.7 112.3 600 116.8C633.3 121.3 666.7 122.7 700 122C733.3 121.3 766.7 118.7 800 113.8C833.3 109 866.7 102 883.3 98.5L900 95L900 0L883.3 0C866.7 0 833.3 0 800 0C766.7 0 733.3 0 700 0C666.7 0 633.3 0 600 0C566.7 0 533.3 0 500 0C466.7 0 433.3 0 400 0C366.7 0 333.3 0 300 0C266.7 0 233.3 0 200 0C166.7 0 133.3 0 100 0C66.7 0 33.3 0 16.7 0L0 0Z" fill="#7e5aff"></path><path d="M0 81L16.7 82.5C33.3 84 66.7 87 100 83.7C133.3 80.3 166.7 70.7 200 67.7C233.3 64.7 266.7 68.3 300 68.3C333.3 68.3 366.7 64.7 400 68.7C433.3 72.7 466.7 84.3 500 89.3C533.3 94.3 566.7 92.7 600 90.3C633.3 88 666.7 85 700 79.8C733.3 74.7 766.7 67.3 800 69C833.3 70.7 866.7 81.3 883.3 86.7L900 92L900 0L883.3 0C866.7 0 833.3 0 800 0C766.7 0 733.3 0 700 0C666.7 0 633.3 0 600 0C566.7 0 533.3 0 500 0C466.7 0 433.3 0 400 0C366.7 0 333.3 0 300 0C266.7 0 233.3 0 200 0C166.7 0 133.3 0 100 0C66.7 0 33.3 0 16.7 0L0 0Z" fill="#7150ff"></path><path d="M0 44L16.7 48.8C33.3 53.7 66.7 63.3 100 64.7C133.3 66 166.7 59 200 55.5C233.3 52 266.7 52 300 55.7C333.3 59.3 366.7 66.7 400 71C433.3 75.3 466.7 76.7 500 73.7C533.3 70.7 566.7 63.3 600 60C633.3 56.7 666.7 57.3 700 58.2C733.3 59 766.7 60 800 61.2C833.3 62.3 866.7 63.7 883.3 64.3L900 65L900 0L883.3 0C866.7 0 833.3 0 800 0C766.7 0 733.3 0 700 0C666.7 0 633.3 0 600 0C566.7 0 533.3 0 500 0C466.7 0 433.3 0 400 0C366.7 0 333.3 0 300 0C266.7 0 233.3 0 200 0C166.7 0 133.3 0 100 0C66.7 0 33.3 0 16.7 0L0 0Z" fill="#6346ff"></path><path d="M0 32L16.7 34.7C33.3 37.3 66.7 42.7 100 42.8C133.3 43 166.7 38 200 38.3C233.3 38.7 266.7 44.3 300 45.2C333.3 46 366.7 42 400 41.7C433.3 41.3 466.7 44.7 500 44C533.3 43.3 566.7 38.7 600 40.2C633.3 41.7 666.7 49.3 700 52.8C733.3 56.3 766.7 55.7 800 54C833.3 52.3 866.7 49.7 883.3 48.3L900 47L900 0L883.3 0C866.7 0 833.3 0 800 0C766.7 0 733.3 0 700 0C666.7 0 633.3 0 600 0C566.7 0 533.3 0 500 0C466.7 0 433.3 0 400 0C366.7 0 333.3 0 300 0C266.7 0 233.3 0 200 0C166.7 0 133.3 0 100 0C66.7 0 33.3 0 16.7 0L0 0Z" fill="#523bff"></path><path d="M0 16L16.7 15.3C33.3 14.7 66.7 13.3 100 15C133.3 16.7 166.7 21.3 200 21.5C233.3 21.7 266.7 17.3 300 16.5C333.3 15.7 366.7 18.3 400 22C433.3 25.7 466.7 30.3 500 31C533.3 31.7 566.7 28.3 600 25.7C633.3 23 666.7 21 700 20.2C733.3 19.3 766.7 19.7 800 20.7C833.3 21.7 866.7 23.3 883.3 24.2L900 25L900 0L883.3 0C866.7 0 833.3 0 800 0C766.7 0 733.3 0 700 0C666.7 0 633.3 0 600 0C566.7 0 533.3 0 500 0C466.7 0 433.3 0 400 0C366.7 0 333.3 0 300 0C266.7 0 233.3 0 200 0C166.7 0 133.3 0 100 0C66.7 0 33.3 0 16.7 0L0 0Z" fill="#3d30ff"></path></svg>